<?xml version="1.0" encoding="UTF-8" standalone="no"?>
<svg
   xmlns:dc="http://purl.org/dc/elements/1.1/"
   xmlns:cc="http://creativecommons.org/ns#"
   xmlns:rdf="http://www.w3.org/1999/02/22-rdf-syntax-ns#"
   xmlns:svg="http://www.w3.org/2000/svg"
   xmlns="http://www.w3.org/2000/svg"
   xmlns:sodipodi="http://sodipodi.sourceforge.net/DTD/sodipodi-0.dtd"
   xmlns:inkscape="http://www.inkscape.org/namespaces/inkscape"
   id="be32c85c-9388-4a2b-a4e5-271574a5b9b2"
   data-name="Layer 1"
   width="666.38953"
   height="551.76575"
   viewBox="0 0 666.38953 551.76574"
   version="1.1"
   sodipodi:docname="fxbound.svg"
   inkscape:version="1.0.1 (3bc2e81, 2020-09-07)">
  <metadata
     id="metadata73">
    <rdf:RDF>
      <cc:Work
         rdf:about="">
        <dc:format>image/svg+xml</dc:format>
        <dc:type
           rdf:resource="http://purl.org/dc/dcmitype/StillImage" />
      </cc:Work>
    </rdf:RDF>
  </metadata>
  <defs
     id="defs71" />
  <sodipodi:namedview
     pagecolor="#ffffff"
     bordercolor="#666666"
     borderopacity="1"
     objecttolerance="10"
     gridtolerance="10"
     guidetolerance="10"
     inkscape:pageopacity="0"
     inkscape:pageshadow="2"
     inkscape:window-width="1366"
     inkscape:window-height="743"
     id="namedview69"
     showgrid="false"
     inkscape:zoom="0.85872149"
     inkscape:cx="-29.646291"
     inkscape:cy="200.30504"
     inkscape:window-x="0"
     inkscape:window-y="177"
     inkscape:window-maximized="1"
     inkscape:current-layer="be32c85c-9388-4a2b-a4e5-271574a5b9b2" />
  <title
     id="title2">design_notes</title>
  <rect
     x="0.27493286"
     y="68.990997"
     width="643.86163"
     height="412.3576"
     fill="#e6e6e6"
     id="rect32" />
  <rect
     x="18.686005"
     y="120.71093"
     width="607.03949"
     height="336.24258"
     fill="#ffffff"
     id="rect34" />
  <rect
     x="0"
     y="68.625984"
     width="643.86163"
     height="27.3536"
     fill="#6c63ff"
     id="rect36" />
  <circle
     cx="20.327011"
     cy="82.610596"
     r="5.0697799"
     fill="#ffffff"
     id="circle38" />
  <circle
     cx="39.570618"
     cy="82.610596"
     r="5.0697799"
     fill="#ffffff"
     id="circle40" />
  <circle
     cx="58.81424"
     cy="82.610596"
     r="5.0697799"
     fill="#ffffff"
     id="circle42" />
  <rect
     x="73.843842"
     y="155.59883"
     width="155.98055"
     height="266.46677"
     fill="#e6e6e6"
     id="rect44" />
  <rect
     x="256.7496"
     y="155.59883"
     width="129.9838"
     height="73.347992"
     fill="#6c63ff"
     id="rect46" />
  <rect
     x="256.7496"
     y="249.37285"
     width="129.9838"
     height="78.918732"
     fill="#e6e6e6"
     id="rect48" />
  <rect
     x="256.7496"
     y="348.71759"
     width="129.9838"
     height="73.347992"
     fill="#e6e6e6"
     id="rect50" />
  <rect
     x="414.58704"
     y="155.59883"
     width="155.98055"
     height="116.12476"
     fill="#e6e6e6"
     id="rect52" />
  <rect
     x="414.58704"
     y="305.94083"
     width="155.98055"
     height="116.12476"
     fill="#6c63ff"
     id="rect54" />
  <polygon
     points="587.089,21.06 844.827,21.06 844.827,23.166 588.708,23.166 544.691,188.755 542.655,188.214 "
     fill="#3f3d56"
     id="polygon56"
     transform="translate(-221.61047)" />
  <path
     d="m 644.27673,44.2255 a 22.11275,22.11275 0 1 1 22.1128,-22.11275 22.13792,22.13792 0 0 1 -22.1128,22.11275 z m 0,-42.11952 a 20.00678,20.00678 0 1 0 20.0068,20.00677 20.02953,20.02953 0 0 0 -20.0068,-20.00677 z"
     fill="#3f3d56"
     id="path58" />
  <circle
     cx="644.27679"
     cy="22.112759"
     r="8.4238997"
     fill="#6c63ff"
     id="circle60" />
  <polygon
     points="415.208,528.6 671.328,528.6 715.345,363.01 717.381,363.551 672.947,530.706 415.208,530.706 "
     fill="#3f3d56"
     id="polygon62"
     transform="translate(-221.61047)" />
  <path
     d="m 172.53813,551.76575 a 22.11275,22.11275 0 1 1 22.11275,-22.11275 22.13792,22.13792 0 0 1 -22.11275,22.11275 z m 0,-42.11952 A 20.00678,20.00678 0 1 0 192.5449,529.653 20.02953,20.02953 0 0 0 172.53813,509.64623 Z"
     fill="#3f3d56"
     id="path64" />
  <circle
     cx="172.53812"
     cy="529.65302"
     r="8.4238997"
     fill="#6c63ff"
     id="circle66" />
</svg>
