<?xml version="1.0" encoding="UTF-8" standalone="no"?>
<svg
   xmlns:dc="http://purl.org/dc/elements/1.1/"
   xmlns:cc="http://creativecommons.org/ns#"
   xmlns:rdf="http://www.w3.org/1999/02/22-rdf-syntax-ns#"
   xmlns:svg="http://www.w3.org/2000/svg"
   xmlns="http://www.w3.org/2000/svg"
   xmlns:sodipodi="http://sodipodi.sourceforge.net/DTD/sodipodi-0.dtd"
   xmlns:inkscape="http://www.inkscape.org/namespaces/inkscape"
   id="e1d6a9e2-5d0a-4358-9625-bb79dd06fec3"
   data-name="Layer 1"
   width="587.07056"
   height="587.07166"
   viewBox="0 0 587.07056 587.07164"
   version="1.1"
   sodipodi:docname="gof.svg"
   inkscape:version="1.0.1 (3bc2e81, 2020-09-07)">
  <metadata
     id="metadata69">
    <rdf:RDF>
      <cc:Work
         rdf:about="">
        <dc:format>image/svg+xml</dc:format>
        <dc:type
           rdf:resource="http://purl.org/dc/dcmitype/StillImage" />
      </cc:Work>
    </rdf:RDF>
  </metadata>
  <defs
     id="defs67" />
  <sodipodi:namedview
     pagecolor="#ffffff"
     bordercolor="#666666"
     borderopacity="1"
     objecttolerance="10"
     gridtolerance="10"
     guidetolerance="10"
     inkscape:pageopacity="0"
     inkscape:pageshadow="2"
     inkscape:window-width="1366"
     inkscape:window-height="743"
     id="namedview65"
     showgrid="false"
     inkscape:zoom="0.83059942"
     inkscape:cx="311.58777"
     inkscape:cy="372.96985"
     inkscape:window-x="0"
     inkscape:window-y="177"
     inkscape:window-maximized="1"
     inkscape:current-layer="e1d6a9e2-5d0a-4358-9625-bb79dd06fec3" />
  <title
     id="title2">solution_mindset</title>
  <path
     d="m 293.53627,587.07058 a 293.53529,293.53529 0 1 1 207.55981,-85.97449 291.6131,291.6131 0 0 1 -207.55981,85.97449 z m 0,-584.82844 c -160.61958,0 -291.2935918,130.67347 -291.2935918,291.29359 0,160.62012 130.6740018,291.29413 291.2935918,291.29413 160.61959,0 291.29359,-130.67401 291.29359,-291.29416 0,-160.62015 -130.67402,-291.29356 -291.29359,-291.29356 z"
     fill="#2f2e41"
     id="path6" />
  <polygon
     points="315.201,467.019 156.779,387.808 154.049,386.443 162.271,222.003 305.334,120.05 306.913,121.037 454.975,213.781 459.908,386.443 459.875,386.46 "
     fill="#6c63ff"
     id="polygon8"
     transform="translate(-13.442362,0.00142)" />
  <polygon
     points="156.779,387.808 297.112,289.424 459.875,386.46 315.201,467.019 "
     opacity="0.3"
     id="polygon10"
     transform="translate(-13.442362,0.00142)" />
  <polygon
     points="306.913,121.037 454.975,213.781 459.908,386.443 297.112,289.424 "
     opacity="0.1"
     id="polygon12"
     transform="translate(-13.442362,0.00142)" />
  <polygon
     points="304.021,169.5 456.834,265.309 456.094,266.49 304.066,171.173 160.165,272.745 159.361,271.607 "
     fill="#f2f2f2"
     id="polygon14"
     transform="translate(-13.442362,0.00142)" />
  <polygon
     points="300.505,229.743 300.882,229.957 456.963,318.417 456.275,319.629 300.571,231.382 157.361,328.61 156.579,327.458 "
     fill="#f2f2f2"
     id="polygon16"
     transform="translate(-13.442362,0.00142)" />
  <polygon
     points="356.595,324.9 356.595,152.594 357.988,152.594 357.988,325.676 212.276,415.965 211.542,414.781 "
     fill="#f2f2f2"
     id="polygon18"
     transform="translate(-13.442362,0.00142)" />
  <polygon
     points="408.138,355.645 408.138,184.879 409.531,184.879 409.531,356.416 269.209,444.428 268.469,443.248 "
     fill="#f2f2f2"
     id="polygon20"
     transform="translate(-13.442362,0.00142)" />
  <polygon
     points="245.199,325.296 253.75,156.281 255.141,156.352 246.612,324.933 408.289,414.764 407.612,415.982 245.176,325.73 "
     fill="#f2f2f2"
     id="polygon22"
     transform="translate(-13.442362,0.00142)" />
  <polygon
     points="195.92,359.841 205.388,190.742 206.779,190.82 197.337,359.471 357.154,443.221 356.507,444.455 195.895,360.288 "
     fill="#f2f2f2"
     id="polygon24"
     transform="translate(-13.442362,0.00142)" />
</svg>
