<?xml version="1.0" encoding="UTF-8" standalone="no"?>
<svg
   xmlns:dc="http://purl.org/dc/elements/1.1/"
   xmlns:cc="http://creativecommons.org/ns#"
   xmlns:rdf="http://www.w3.org/1999/02/22-rdf-syntax-ns#"
   xmlns:svg="http://www.w3.org/2000/svg"
   xmlns="http://www.w3.org/2000/svg"
   xmlns:sodipodi="http://sodipodi.sourceforge.net/DTD/sodipodi-0.dtd"
   xmlns:inkscape="http://www.inkscape.org/namespaces/inkscape"
   id="bb5e65c7-a306-47bb-829f-a7ac48d31837"
   data-name="Layer 1"
   width="428.58206"
   height="302.48404"
   viewBox="0 0 428.58206 302.48404"
   version="1.1"
   sodipodi:docname="undraw_conceptual_idea_xw7k.svg"
   inkscape:version="1.0.1 (3bc2e81, 2020-09-07)">
  <metadata
     id="metadata71">
    <rdf:RDF>
      <cc:Work
         rdf:about="">
        <dc:format>image/svg+xml</dc:format>
        <dc:type
           rdf:resource="http://purl.org/dc/dcmitype/StillImage" />
      </cc:Work>
    </rdf:RDF>
  </metadata>
  <defs
     id="defs69" />
  <sodipodi:namedview
     pagecolor="#ffffff"
     bordercolor="#666666"
     borderopacity="1"
     objecttolerance="10"
     gridtolerance="10"
     guidetolerance="10"
     inkscape:pageopacity="0"
     inkscape:pageshadow="2"
     inkscape:window-width="1366"
     inkscape:window-height="743"
     id="namedview67"
     showgrid="false"
     inkscape:zoom="0.47072133"
     inkscape:cx="301.35007"
     inkscape:cy="435.14669"
     inkscape:window-x="0"
     inkscape:window-y="177"
     inkscape:window-maximized="1"
     inkscape:current-layer="bb5e65c7-a306-47bb-829f-a7ac48d31837" />
  <title
     id="title2">conceptual_idea</title>
  <path
     d="M 3.6192745,0 A 3.63286,3.63286 0 0 0 4.5259406e-6,3.63825 v 294.7235 A 3.63254,3.63254 0 0 0 3.6192745,302 H 424.38127 A 3.63212,3.63212 0 0 0 428,298.36175 V 3.63825 A 3.63244,3.63244 0 0 0 424.38122,0 Z"
     fill="#3f3d56"
     id="path34" />
  <path
     d="m 2.1057345,173.21056 c 12.8352005,-0.0372 24.9525605,4.52447 35.5210005,11.61767 11.093,7.44524 20.46845,17.30946 28.70416,27.75616 9.10107,11.54438 16.89921,24.03566 25.2703,36.10179 7.73081,11.14323 16.014525,21.97621 25.978125,31.2352 9.42648,8.75985 20.34374,16.12485 32.65637,20.11911 1.5,0.4866 3.01675,0.91657 4.54616,1.30039 1.72378,0.43261 2.45916,-2.22947 0.734,-2.66242 -12.644,-3.17317 -23.94908,-10.04613 -33.66773,-18.61218 -10.14125,-8.93852 -18.57263,-19.54531 -26.323745,-30.56958 -8.43932,-12.00309 -16.205,-24.48262 -25.12832,-36.14262 -8.25624,-10.78839 -17.54089,-20.93207 -28.56923,-28.94838 -10.23381,-7.43877 -22.08813,-12.73711 -34.7961805,-13.77123 -1.63868,-0.13335 -3.281,-0.18973 -4.92495,-0.185 a 1.38136,1.38136 0 0 0 0,2.76106 z"
     fill="#6c63ff"
     id="path36" />
  <path
     d="M 3.5400045,300.68133 C 26.118135,277.84365 56.983925,267.04819 87.635145,260.04517 119.69343,252.72068 152.76766,248.78854 183.2272,235.72136 A 133.13368,133.13368 0 0 0 222.6588,210.30324 130.83845,130.83845 0 0 0 249.07715,174.66565 135.0823,135.0823 0 0 0 261.17878,87.27447 149.29305,149.29305 0 0 0 217.16651,8.53281 Q 213.065,4.67731 208.67358,1.15035 c -1.37136,-1.10442 -3.337,0.83728 -1.95237,1.95236 a 147.51181,147.51181 0 0 1 49.41219,74.90273 132.28485,132.28485 0 0 1 -5.94226,87.82165 130.77561,130.77561 0 0 1 -23.73238,36.68861 125.43167,125.43167 0 0 1 -36.88989,27.26079 c -29.54612,14.58764 -62.6173,19.10322 -94.517715,25.82066 -30.07821,6.33371 -60.75968,15.3684 -84.87514,35.26941 a 115.12231,115.12231 0 0 0 -8.5883705,7.86241 c -1.25050997,1.26489 0.70071,3.21841 1.95236,1.95236 z"
     fill="#6c63ff"
     id="path38" />
  <path
     d="m 1.8462445,127.79322 a 179.10938,179.10938 0 0 1 105.2474955,3.60459 c 9.85656,3.38036 19.96636,7.30913 28.21223,13.84489 7.09373,5.62256 13.32262,14.134 11.55053,23.69061 -1.63354,8.8094 -9.7367,15.76792 -18.45788,17.04116 -8.99477,1.31318 -17.19022,-4.16044 -21.31594,-11.9169 a 22.99322,22.99322 0 0 1 1.66748,-24.696 c 5.2142,-7.023 13.88316,-11.03364 22.40248,-12.1456 9.73851,-1.27109 19.31666,1.59942 27.74,6.39919 19.03751,10.84787 31.19467,29.75987 47.18264,44.17672 a 79.31436,79.31436 0 0 0 26.47272,16.30283 82.22179,82.22179 0 0 0 29.53985,4.46748 c 21.03834,-0.5357 41.21178,-8.13562 58.39994,-20.05736 17.24163,-11.95882 31.48233,-27.66 43.95059,-44.41684 6.667,-8.96022 12.46166,-18.58788 19.43849,-27.31155 6.86751,-8.587 15.36534,-16.22094 26.23165,-19.09556 a 28.95183,28.95183 0 0 1 15.1266,-0.0836 1.38171,1.38171 0 0 0 0.734,-2.66243 c -10.56491,-2.88089 -21.67107,0.49121 -30.43008,6.6398 -9.36918,6.57692 -16.08285,16.10965 -22.45189,25.4456 -12.7247,18.6523 -26.42849,36.72842 -43.82228,51.31994 -17.36589,14.56811 -38.26549,25.00734 -61.04862,27.09921 a 82.88231,82.88231 0 0 1 -32.38843,-3.15574 c -10.95663,-3.44206 -20.45772,-9.65882 -28.85609,-17.408 -16.501,-15.22543 -29.33565,-35.21049 -49.98808,-45.40193 -8.70487,-4.29563 -18.23107,-6.35656 -27.8776,-4.721 -8.49366,1.4401 -16.84781,5.62828 -22.20267,12.50854 a 25.43344,25.43344 0 0 0 -3.7335,24.80191 c 3.0507,8.00993 9.85785,14.92789 18.5025,16.50519 8.7257,1.59209 17.8422,-2.43156 23.29072,-9.28058 a 22.36437,22.36437 0 0 0 2.1325,-24.58275 c -4.48173,-8.6635 -13.22555,-14.65339 -21.74245,-18.88038 a 162.28474,162.28474 0 0 0 -33.491145,-11.7708 182.68269,182.68269 0 0 0 -72.47144,-2.85349 186.93513,186.93513 0 0 0 -18.2783505,3.93038 1.38171,1.38171 0 0 0 0.734,2.66243 z"
     fill="#6c63ff"
     id="path40" />
  <path
     d="m 289.91334,301.89341 c 9.76864,-13.11805 19.75683,-27.03237 23.97363,-43.08148 a 51.75575,51.75575 0 0 0 0.89984,-23.50089 50.69534,50.69534 0 0 0 -8.34763,-18.88217 c -8.30229,-11.79275 -20.54265,-20.55678 -33.56777,-26.47317 -16.13042,-7.32692 -33.52539,-11.08387 -50.361,-16.36723 -15.51858,-4.87 -31.42937,-11.2246 -43.022,-23.061 -10.953,-11.18331 -17.15889,-28.01642 -11.04992,-43.15705 5.54294,-13.73777 19.0512,-22.84807 32.53581,-27.65764 16.533,-5.89684 34.24049,-6.95836 51.088,-11.632 14.08485,-3.90725 28.49918,-10.56947 37.22009,-22.80211 7.39058,-10.36661 9.763,-25.316 3.8554,-36.9026 A 26.062,26.062 0 0 0 287.4154,0.92794 c -1.314,-1.1908 -3.27242,0.75606 -1.95236,1.95236 9.96208,9.02817 10.08053,24.4745 4.46779,35.90866 -6.59019,13.4254 -20.81936,21.073 -34.51537,25.41679 -16.30161,5.17019 -33.55236,6.27373 -49.93278,11.1382 -14.0002,4.15763 -27.69552,11.612 -35.93418,24.07077 a 37.33,37.33 0 0 0 -6.3185,20.14363 44.10711,44.10711 0 0 0 5.94915,21.877 c 7.78852,13.82828 21.67039,22.77357 35.95725,28.80976 30.037,12.6906 65.67009,14.62855 90.41687,37.89605 10.62725,9.992 17.84345,23.2632 17.42677,38.12935 -0.45958,16.3971 -9.225,31.31548 -18.34175,44.41744 -2.30709,3.31558 -4.69672,6.57245 -7.10907,9.81193 -1.06186,1.42594 1.33374,2.804 2.38409,1.39356 z"
     fill="#6c63ff"
     id="path42" />
  <path
     d="m 64.412895,3.68975 a 29.21923,29.21923 0 0 1 12.00353,24.19639 28.87325,28.87325 0 0 1 -13.65048,23.63641 c -7.66773,4.526 -18.4448,5.09553 -24.55045,-2.3004 a 15.09471,15.09471 0 0 1 -3.51065,-10.77739 11.83176,11.83176 0 0 1 6.11155,-9.04722 c 7.74551,-4.41934 17.02888,-1.8175 24.18674,2.41707 4.4305,2.62107 8.48462,5.80963 12.72082,8.72144 a 72.69091,72.69091 0 0 0 12.899,7.12517 c 18.034295,7.6177 39.194715,7.70829 56.972455,-0.71215 a 67.82966,67.82966 0 0 0 34.726,-38.76064 61.74476,61.74476 0 0 0 1.79816,-6.35232 c 0.39315,-1.73009 -2.26821,-2.46876 -2.66243,-0.734 -4.14861,18.256 -16.82337,34.04228 -33.43111,42.56339 -18.10246,9.288 -40.45293,9.02822 -58.749995,0.39138 a 86.37247,86.37247 0 0 1 -13.35809,-8.16172 c -4.31612,-3.0932 -8.62023,-6.28736 -13.44506,-8.5579 -7.58426,-3.56913 -17.51122,-4.57358 -24.62347,0.70522 a 14.48836,14.48836 0 0 0 -5.90569,10.40228 17.54588,17.54588 0 0 0 3.534,11.72621 c 5.91574,7.97994 16.56492,9.11 25.29981,5.42572 9.18711,-3.875 15.80587,-12.6487 17.77024,-22.34462 A 31.6887,31.6887 0 0 0 65.806405,1.30565 c -1.44491,-1.039 -2.82484,1.35491 -1.39356,2.3841 z"
     fill="#6c63ff"
     id="path44" />
  <path
     d="m 357.22344,301.36267 a 92.19229,92.19229 0 0 1 17.10453,-36.58 96.70191,96.70191 0 0 1 30.78855,-26.21722 89.25077,89.25077 0 0 1 21.3478,-8.16011 c 1.72669,-0.41586 0.99555,-3.079 -0.734,-2.66243 a 94.82159,94.82159 0 0 0 -37.09175,18.48509 99.06958,99.06958 0 0 0 -26.165,32.1992 92.13631,92.13631 0 0 0 -7.91251,22.20147 c -0.37324,1.73257 2.28782,2.4729 2.66243,0.734 z"
     fill="#6c63ff"
     id="path46" />
  <path
     d="m 342.56329,1.33736 c -5.88672,0.0593 -10.85109,4.13393 -13.26207,9.32918 -2.73606,5.89573 -1.98766,12.3838 0.94518,18.06421 6.842,13.25172 21.78125,17.948 32.53824,27.1103 4.99079,4.25089 9.34067,9.66005 10.4859,16.279 1.11632,6.45192 -1.188,13.1011 -4.963,18.293 -4.12188,5.669 -10.33773,9.56649 -16.81317,12.02453 a 64.43163,64.43163 0 0 1 -20.81522,4.17311 c -6.87892,0.19489 -14.1522,-1.00705 -19.849,-5.11072 a 20.99107,20.99107 0 0 1 -8.62734,-14.51429 14.09967,14.09967 0 0 1 6.377,-13.4186 20.54192,20.54192 0 0 1 14.78175,-2.39878 c 12.59,2.488 19.11177,14.9809 21.89578,26.4332 3.54507,14.583 2.137,30.08621 7.58947,44.25643 a 58.62679,58.62679 0 0 0 24.08382,28.82859 c 12.57694,7.65022 26.1181,10.12636 40.38948,6.38938 a 59.25359,59.25359 0 0 0 10.5537,-3.92616 c 1.60205,-0.76684 0.203,-3.1483 -1.39356,-2.38409 -14.18681,6.7907 -28.702,7.00756 -42.9793,0.31584 A 55.83461,55.83461 0 0 1 356.71346,143.9794 c -6.46,-14.05953 -5.17565,-29.84611 -8.25078,-44.69683 -2.47518,-11.95339 -8.48721,-25.2776 -20.76852,-29.77211 -9.88294,-3.6168 -23.12863,-0.80933 -27.24276,9.83343 -2.1506,5.56333 -0.90627,11.92462 2.0478,16.947 a 25.861,25.861 0 0 0 14.76368,11.39413 c 6.92649,2.2013 14.40043,2.01682 21.50475,0.89645 a 60.47258,60.47258 0 0 0 20.41177,-6.7057 34.4544,34.4544 0 0 0 14.19524,-14.51407 c 2.95063,-6.0151 3.90019,-13.01567 1.65672,-19.42568 -4.95679,-14.16246 -19.9476,-20.01013 -31.13889,-28.199 -5.514,-4.03467 -10.6901,-9.3344 -12.74466,-16.01258 a 15.95264,15.95264 0 0 1 4.04035,-16.56431 10.9765,10.9765 0 0 1 7.37518,-3.06175 1.38136,1.38136 0 0 0 0,-2.76106 z"
     fill="#6c63ff"
     id="path48" />
  <circle
     cx="287.26575"
     cy="200.16206"
     r="53.380428"
     fill="#6c63ff"
     id="circle50" />
  <circle
     cx="301.07104"
     cy="59.348171"
     r="21.1681"
     fill="#6c63ff"
     id="circle52" />
  <circle
     cx="42.452061"
     cy="74.994156"
     r="21.1681"
     fill="#6c63ff"
     id="circle54" />
</svg>
