<?xml version="1.0" encoding="UTF-8" standalone="no"?>
<svg
   xmlns:dc="http://purl.org/dc/elements/1.1/"
   xmlns:cc="http://creativecommons.org/ns#"
   xmlns:rdf="http://www.w3.org/1999/02/22-rdf-syntax-ns#"
   xmlns:svg="http://www.w3.org/2000/svg"
   xmlns="http://www.w3.org/2000/svg"
   xmlns:sodipodi="http://sodipodi.sourceforge.net/DTD/sodipodi-0.dtd"
   xmlns:inkscape="http://www.inkscape.org/namespaces/inkscape"
   id="bdb04d07-607e-4453-aab0-0c653d7063a3"
   data-name="Layer 1"
   width="238.26794"
   height="285.52615"
   viewBox="0 0 238.26794 285.52615"
   version="1.1"
   sodipodi:docname="ritual.svg"
   inkscape:version="1.0.1 (3bc2e81, 2020-09-07)">
  <metadata
     id="metadata163">
    <rdf:RDF>
      <cc:Work
         rdf:about="">
        <dc:format>image/svg+xml</dc:format>
        <dc:type
           rdf:resource="http://purl.org/dc/dcmitype/StillImage" />
      </cc:Work>
    </rdf:RDF>
  </metadata>
  <defs
     id="defs161" />
  <sodipodi:namedview
     pagecolor="#ffffff"
     bordercolor="#666666"
     borderopacity="1"
     objecttolerance="10"
     gridtolerance="10"
     guidetolerance="10"
     inkscape:pageopacity="0"
     inkscape:pageshadow="2"
     inkscape:window-width="1366"
     inkscape:window-height="743"
     id="namedview159"
     showgrid="false"
     inkscape:zoom="0.39217605"
     inkscape:cx="151.45722"
     inkscape:cy="138.39845"
     inkscape:window-x="0"
     inkscape:window-y="177"
     inkscape:window-maximized="1"
     inkscape:current-layer="bdb04d07-607e-4453-aab0-0c653d7063a3" />
  <title
     id="title2">real_time_collaboration</title>
  <path
     d="m 119.70667,261.59081 a 110.48819,110.48819 0 1 1 81.70269,-36.16586 l 23.0735,25.86514 -11.51412,4.88405 c -17.8121,7.55538 -35.24259,0.20357 -45.02592,-5.66378 a 110.62763,110.62763 0 0 1 -48.23615,11.08045 z m 0,-202.815812 c -50.974291,0 -92.445093,41.470792 -92.445093,92.445082 0,50.97454 41.470802,92.44509 92.445093,92.44509 A 92.519895,92.519895 0 0 0 164.1484,232.2976 l 4.92905,-2.70835 4.58295,3.26101 c 3.34005,2.37626 9.92712,6.46754 17.48999,8.00203 l -14.51931,-16.27562 6.3645,-5.98089 a 91.574742,91.574742 0 0 0 29.15617,-67.3757 c -2e-5,-50.97429 -41.47082,-92.445082 -92.44508,-92.445082 z"
     fill="#3f3d56"
     id="path10"
     style="stroke-width:0.524659" />
  <path
     d="m 221.11449,151.21998 c 0,-56.006062 -45.40188,-101.407912 -101.40791,-101.407912 -56.006033,0 -101.407911,45.40185 -101.407911,101.407912 0,56.00605 45.401883,101.4079 101.407911,101.4079 a 100.94636,100.94636 0 0 0 48.75778,-12.47458 c 7.00992,4.98757 24.11073,14.93577 41.0044,7.76979 l -20.33549,-22.79562 a 101.12042,101.12042 0 0 0 31.98122,-73.90749 z"
     fill="#6c63ff"
     id="path12"
     style="stroke-width:0.524659" />
  <path
     d="m 36.224317,150.7078 c 0,-52.985022 40.63816,-96.471082 92.445083,-101.009162 -2.95386,-0.25874 -5.9418,-0.39874 -8.96282,-0.39874 -56.006054,0 -101.407905,45.40184 -101.407905,101.407912 0,56.00606 45.401851,101.4079 101.407905,101.4079 3.01646,0 5.9992,-0.14182 8.94863,-0.4 C 76.855092,247.17096 36.224317,203.68793 36.224317,150.7078 Z"
     opacity="0.1"
     style="isolation:isolate;stroke-width:0.524659"
     id="path14" />
  <circle
     cx="9.4622574"
     cy="138.21419"
     fill="#2f2e41"
     id="circle62"
     r="9.4622574"
     style="stroke-width:0.524659" />
  <polygon
     points="56.086,483.346 57.838,504.467 95.344,502.725 83.822,487.069 83.411,486.51 74.327,477.68 "
     fill="#fbbebe"
     id="polygon64"
     transform="matrix(0.52465963,0,0,0.52465963,-0.00102273,-88.94731)" />
  <circle
     cx="33.337681"
     cy="150.91161"
     fill="#fbbebe"
     id="circle66"
     r="15.297878"
     style="stroke-width:0.524659" />
  <path
     d="m 128.30776,185.9398 c 0,0 18.79372,32.29735 23.26643,37.14603 a 81.185413,81.185413 0 0 0 6.78654,6.76376 c 0,0 -2.10307,6.97453 -5.45191,6.72562 a 15.761777,15.761777 0 0 1 -5.52425,-1.36142 c 0,0 -1.4947,-3.87461 -4.10189,-5.57381 -2.60718,-1.6992 -23.90785,-22.65469 -23.40999,-29.35238 0.49787,-6.69768 8.43507,-14.3478 8.43507,-14.3478 z"
     fill="#2f2e41"
     id="path68"
     style="stroke-width:0.524659" />
  <path
     d="m 61.377575,232.0295 c 0,0 20.038364,15.55314 47.271145,0.93878 l 2.34687,-1.72711 c 0,0 -3.96057,8.90977 -4.32804,11.32534 -0.42608,2.80086 -10.737497,19.20785 -12.420179,19.99393 -1.682689,0.78609 -2.053521,1.51123 -2.053521,1.51123 l 7.140854,7.85973 2.640226,-1.943 c 0,0 10.2949,-14.58589 13.30595,-17.25402 3.01105,-2.66814 17.35716,-30.18457 17.35716,-30.18457 0,0 5.48496,-10.3678 -8.20377,-11.14763 -13.68874,-0.77982 -19.98768,2.95122 -19.98768,2.95122 l -24.294067,3.85921 z"
     fill="#2f2e41"
     id="path70"
     style="stroke-width:0.524659" />
  <path
     d="m 158.59314,228.32186 10.13537,7.01269 c 0,0 12.93055,4.0512 4.96544,6.74725 -7.9651,2.69605 -28.95476,3.67123 -29.43096,-0.0485 -0.47621,-3.71967 0.82791,-9.57435 1.87504,-9.25419 1.04713,0.32015 8.31506,2.20732 12.45511,-4.45732 z"
     fill="#2f2e41"
     id="path72"
     style="stroke-width:0.524659" />
  <path
     d="m 102.87182,267.57914 1.87593,10.30158 c 0,0 5.33422,10.20167 -1.0704,7.03631 -6.404624,-3.16536 -19.599829,-15.1889 -17.651342,-17.70953 1.948493,-2.52063 6.249063,-5.25437 6.685808,-4.43296 0.436745,0.82139 3.669154,6.32123 10.160004,4.8046 z"
     fill="#2f2e41"
     id="path74"
     style="stroke-width:0.524659" />
  <path
     d="m 83.545794,221.5945 c 0,0 -13.621523,15.90344 -21.891383,12.04022 -8.269858,-3.86322 -42.103452,-48.60867 -38.240231,-56.87853 3.863221,-8.26985 5.158553,-6.50969 5.158553,-6.50969 l 17.469356,1.61547 -5.026397,-8.0591 c 0,0 2.346871,-1.72712 4.583227,0.69723 2.236356,2.42434 11.214831,8.47948 14.342657,17.03132 3.127827,8.55182 12.310791,8.12517 12.310791,8.12517 z"
     fill="#ffffff"
     id="path76"
     style="stroke-width:0.524659" />
  <polygon
     points="264.085,529.388 219.08,577.161 178.764,505.981 217.091,459.674 "
     fill="#3f3d56"
     id="polygon78"
     transform="matrix(0.52465963,0,0,0.52465963,-0.00102273,-88.94731)" />
  <polygon
     points="260.688,528.871 220.04,570.852 183.206,506.16 216.986,463.631 "
     fill="#fff"
     id="polygon80"
     transform="matrix(0.52465963,0,0,0.52465963,-0.00102273,-88.94731)" />
  <polygon
     points="217.666,579.925 154.735,598.655 154.14,596.499 157.003,593.538 216.875,575.336 219.08,577.161 "
     fill="#b3b3b3"
     id="polygon82"
     transform="matrix(0.52465963,0,0,0.52465963,-0.00102273,-88.94731)" />
  <polygon
     points="219.639,576.75 154.472,597.125 114.747,522.062 178.764,505.981 "
     fill="#d0cde1"
     id="polygon84"
     transform="matrix(0.52465963,0,0,0.52465963,-0.00102273,-88.94731)" />
  <polygon
     points="214.733,566.569 211.937,568.626 180.907,514.748 184.114,513.25 "
     fill="#3f3d56"
     id="polygon86"
     transform="matrix(0.52465963,0,0,0.52465963,-0.00102273,-88.94731)" />
  <polygon
     points="208.318,569.565 180.751,577.785 149.457,522.377 176.729,516.099 "
     fill="#3f3d56"
     id="polygon88"
     transform="matrix(0.52465963,0,0,0.52465963,-0.00102273,-88.94731)" />
  <path
     d="m 68.549204,188.3117 2.99453,-0.84704 c 0,0 16.699788,-1.8883 16.943582,3.35911 0.243801,5.2474 -19.185068,2.8128 -19.185068,2.8128 l -2.590669,-3.52029 z"
     fill="#fbbebe"
     id="path90"
     style="stroke-width:0.524659" />
  <path
     d="m 83.196618,211.90228 4.16797,-1.71059 c 0,0 12.581373,-5.64102 8.972208,-9.31626 -3.609172,-3.67525 -14.740268,2.70744 -14.740268,2.70744 l -2.130976,2.02046 z"
     fill="#fbbebe"
     id="path92"
     style="stroke-width:0.524659" />
  <path
     d="m 79.482064,203.78221 c 0,0 6.78654,6.76378 5.242277,8.35246 -1.544256,1.58869 -26.867086,22.48548 -33.144381,15.79918 -6.277295,-6.68629 -36.861174,-40.2562 -24.960503,-43.13509 11.90067,-2.87889 15.045013,3.85183 15.045013,3.85183 l 15.710324,26.87848 z"
     fill="#ffffff"
     id="path94"
     style="stroke-width:0.524659" />
  <polygon
     points="112.763,518.781 134.011,525.986 133.664,541.326 111.192,538.901 "
     fill="#fff"
     id="polygon96"
     transform="matrix(0.52465963,0,0,0.52465963,-0.00102273,-88.94731)" />
  <polygon
     points="131.914,565.887 109.021,579.287 82.865,539.06 108.113,572.197 "
     opacity="0.2"
     id="polygon98"
     transform="matrix(0.52465963,0,0,0.52465963,-0.00102273,-88.94731)" />
  <circle
     cx="26.622993"
     cy="146.47713"
     fill="#2f2e41"
     id="circle100"
     r="18.21176"
     style="stroke-width:0.524659" />
  <polygon
     points="238.3,532.417 213.995,496.862 224.298,484.108 249.553,520.688 "
     fill="#6c63ff"
     id="polygon102"
     transform="matrix(0.52465963,0,0,0.52465963,-0.00102273,-88.94731)" />
  <polygon
     points="237.615,546.712 200.613,492.919 202.438,490.714 239.267,544.634 "
     fill="#e6e6e6"
     id="polygon104"
     transform="matrix(0.52465963,0,0,0.52465963,-0.00102273,-88.94731)" />
  <polygon
     points="232.847,551.945 195.845,498.152 197.67,495.947 234.499,549.868 "
     fill="#e6e6e6"
     id="polygon106"
     transform="matrix(0.52465963,0,0,0.52465963,-0.00102273,-88.94731)" />
  <polygon
     points="228.785,555.796 191.783,502.003 193.608,499.798 230.437,553.719 "
     fill="#e6e6e6"
     id="polygon108"
     transform="matrix(0.52465963,0,0,0.52465963,-0.00102273,-88.94731)" />
  <path
     d="m 34.687825,134.31866 h 5.633795 a 10.755376,10.755376 0 0 1 10.755375,10.75537 v 0 h -16.38917 z"
     fill="#2f2e41"
     id="path110"
     style="stroke-width:0.524659" />
  <path
     d="m 112.29256,127.47412 -1.02132,-0.076 c -0.0396,0.53104 -0.0679,1.06527 -0.10166,1.59806 l -4.58435,-0.15349 4.8088,9.01122 5.40073,-8.66942 -4.60117,-0.15405 c 0.0329,-0.51876 0.0604,-1.03895 0.099,-1.55629 z"
     fill="#3f3d56"
     id="path112"
     style="stroke-width:0.524659" />
  <path
     d="m 139.18128,54.021498 0.81426,0.62172 c 1.22139,-1.59975 2.49704,-3.19675 3.79172,-4.74675 l -0.78625,-0.6567 c -1.3042,1.56146 -2.58935,3.17022 -3.81973,4.78173 z"
     fill="#3f3d56"
     id="path114"
     style="stroke-width:0.524659" />
  <path
     d="m 147.02774,44.631288 0.75624,0.69072 c 1.35893,-1.48822 2.76988,-2.96619 4.19308,-4.39339 l -0.72523,-0.72321 c -1.43396,1.43744 -2.85516,2.92666 -4.22409,4.42588 z"
     fill="#3f3d56"
     id="path116"
     style="stroke-width:0.524659" />
  <path
     d="m 155.66571,35.969828 0.69272,0.75474 c 1.48621,-1.36468 3.0207,-2.71261 4.56069,-4.00651 l -0.65871,-0.78425 c -1.55149,1.3034 -3.09747,2.66158 -4.5947,4.03602 z"
     fill="#3f3d56"
     id="path118"
     style="stroke-width:0.524659" />
  <path
     d="m 132.18982,64.070408 0.86578,0.54717 c 1.0766,-1.70329 2.20719,-3.40707 3.36005,-5.06434 l -0.84076,-0.58518 c -1.16162,1.66977 -2.30047,3.38631 -3.38507,5.10235 z"
     fill="#3f3d56"
     id="path120"
     style="stroke-width:0.524659" />
  <path
     d="m 165.02716,28.104088 0.62369,0.81226 c 1.60051,-1.22889 3.24703,-2.43627 4.89379,-3.58863 l -0.58718,-0.83927 c -1.65927,1.16112 -3.31804,2.37749 -4.9303,3.61564 z"
     fill="#3f3d56"
     id="path122"
     style="stroke-width:0.524659" />
  <path
     d="m 126.11166,74.702248 0.91081,0.46815 c 0.9228,-1.79456 1.89861,-3.59262 2.90017,-5.34393 l -0.8893,-0.50866 c -1.00908,1.76456 -1.99214,3.57612 -2.92168,5.38444 z"
     fill="#3f3d56"
     id="path124"
     style="stroke-width:0.524659" />
  <path
     d="m 116.23155,103.53457 -0.99181,-0.25532 c -0.50616,1.96537 -0.97482,3.96949 -1.39294,5.95712 l 1.00232,0.21106 c 0.41513,-1.97262 0.88027,-3.96224 1.38243,-5.91286 z"
     fill="#3f3d56"
     id="path126"
     style="stroke-width:0.524659" />
  <path
     d="m 175.0408,21.094888 0.54968,0.86427 c 1.6978,-1.08035 3.44334,-2.13742 5.18836,-3.14199 l -0.51116,-0.88778 c -1.75803,1.01232 -3.51659,2.07715 -5.22688,3.1655 z"
     fill="#3f3d56"
     id="path128"
     style="stroke-width:0.524659" />
  <path
     d="m 113.73102,115.41582 -1.01082,-0.16606 c -0.32886,1.99963 -0.6177,4.03726 -0.85852,6.05641 l 1.01731,0.12104 c 0.23884,-2.00364 0.52568,-4.02627 0.85203,-6.01139 z"
     fill="#3f3d56"
     id="path130"
     style="stroke-width:0.524659" />
  <path
     d="m 120.9988,85.837258 0.9488,0.38563 c 0.75949,-1.86936 1.572,-3.74793 2.41476,-5.58326 l -0.93079,-0.42764 c -0.84924,1.84933 -1.66778,3.74193 -2.43277,5.62527 z"
     fill="#3f3d56"
     id="path132"
     style="stroke-width:0.524659" />
  <path
     d="m 116.89601,97.390398 0.97981,0.29909 c 0.59069,-1.93285 1.23264,-3.87747 1.9081,-5.77982 l -0.96531,-0.3426 c -0.68046,1.91634 -1.32741,3.87571 -1.9226,5.82333 z"
     fill="#3f3d56"
     id="path134"
     style="stroke-width:0.524659" />
  <path
     d="m 185.62839,14.999468 0.47114,0.90928 c 1.78881,-0.92679 3.6199,-1.82482 5.44297,-2.66933 l -0.43064,-0.9293 c -1.83657,0.85077 -3.68141,1.75556 -5.48347,2.68935 z"
     fill="#3f3d56"
     id="path138"
     style="stroke-width:0.524659" />
  <path
     d="m 232.10201,0.61294 0.12504,1.01682 c 1.99613,-0.24558 4.02877,-0.45039 6.0409,-0.60844 L 238.18795,0 c -2.02764,0.1593 -4.07528,0.36561 -6.08592,0.61294 z"
     fill="#3f3d56"
     id="path148"
     style="stroke-width:0.524659" />
  <path
     d="m 208.20599,5.73755 0.3031,0.97831 c 1.92486,-0.59593 3.88922,-1.15661 5.83883,-1.66652 l -0.25908,-0.99081 c -1.96412,0.51341 -3.94349,1.07833 -5.88285,1.67902 z"
     fill="#3f3d56"
     id="path150"
     style="stroke-width:0.524659" />
  <path
     d="m 196.70713,9.86761 0.38886,0.9478 c 1.86234,-0.76425 3.76469,-1.49573 5.65429,-2.17469 l -0.34611,-0.96381 c -1.90412,0.68372 -3.8207,1.42095 -5.69704,2.1907 z"
     fill="#3f3d56"
     id="path152"
     style="stroke-width:0.524659" />
  <path
     d="m 220.04047,2.64308 0.21459,1.00182 c 1.96787,-0.42189 3.97425,-0.80576 5.96388,-1.14061 l -0.17005,-1.01032 c -2.00441,0.3376 -4.02605,0.72422 -6.00842,1.14911 z"
     fill="#3f3d56"
     id="path154"
     style="stroke-width:0.524659" />
</svg>
